<svg width="46" height="32" viewBox="0 0 46 32" fill="none" xmlns="http://www.w3.org/2000/svg">
<path d="M17.9961 21.499C17.8594 21.499 17.7422 21.4502 17.6445 21.3525C17.5469 21.2471 17.498 21.1299 17.498 21.001C17.498 20.8643 17.5469 20.7471 17.6445 20.6494L22.291 16.0029L17.6445 11.3564C17.5469 11.2588 17.498 11.1396 17.498 10.999C17.498 10.8936 17.5273 10.7998 17.5859 10.7178L17.6445 10.6475C17.7422 10.5498 17.8594 10.501 17.9961 10.501C18.1016 10.501 18.1973 10.5303 18.2832 10.5889L18.3535 10.6475L23 15.2939L27.6465 10.6475C27.7402 10.5498 27.8574 10.501 27.998 10.501C28.1387 10.501 28.2559 10.5498 28.3496 10.6475C28.4512 10.7412 28.502 10.8584 28.502 10.999C28.502 11.1357 28.4512 11.2549 28.3496 11.3564L23.7031 16.0029L28.3496 20.6494C28.4473 20.7432 28.4961 20.8604 28.4961 21.001C28.4961 21.1025 28.4668 21.1982 28.4082 21.2881L28.3496 21.3525C28.2559 21.4502 28.1387 21.499 27.998 21.499C27.8965 21.499 27.8008 21.4697 27.7109 21.4111L27.6465 21.3525L23 16.7061L18.3535 21.3525C18.2559 21.4502 18.1367 21.499 17.9961 21.499Z" fill="black" fill-opacity="0.8956"/>
</svg>
