<svg width="68" height="68" viewBox="0 0 68 68" fill="none" xmlns="http://www.w3.org/2000/svg">
<rect width="68" height="68" rx="34" fill="#F8F8F8"/>
<path d="M29.6269 29.4056V29.4045L37.13 33.8907L41.6009 32.0122C42.5096 31.6204 43.4892 31.4189 44.4791 31.4202C44.6444 31.4202 44.8074 31.428 44.9694 31.438C44.432 29.3457 43.2974 27.4542 41.7034 25.9935C40.1093 24.5328 38.1245 23.5658 35.9902 23.21C33.8559 22.8542 31.664 23.1249 29.681 23.9893C27.6979 24.8536 26.0091 26.2744 24.8198 28.0789L24.9337 28.0756C26.5918 28.0734 28.2173 28.5341 29.6269 29.4056Z" fill="#0364B8"/>
<path d="M29.628 29.4044C28.2181 28.5331 26.5921 28.0728 24.9338 28.0755L24.8199 28.0788C23.1971 28.0991 21.6105 28.5603 20.2306 29.413C18.8506 30.2657 17.7295 31.4776 16.9877 32.9185C16.2458 34.3593 15.9113 35.9748 16.0201 37.5911C16.1288 39.2075 16.6767 40.7638 17.6049 42.0927L24.219 39.3133L27.1609 38.0781L33.7091 35.3266L37.129 33.8906L29.628 29.4044Z" fill="#0078D4"/>
<path d="M44.9691 31.438C44.8059 31.4266 44.6424 31.4207 44.4788 31.4202C43.4892 31.4194 42.5101 31.6212 41.6018 32.0133L37.1299 33.8907L38.4266 34.6656L42.6762 37.2064L44.5302 38.3145L50.8706 42.1051C51.4467 41.0376 51.7452 39.8429 51.7389 38.6304C51.7326 37.4179 51.4215 36.2263 50.8343 35.1649C50.2471 34.1035 49.4024 33.2061 48.3777 32.555C47.353 31.9039 46.181 31.5198 44.9691 31.438Z" fill="#1490DF"/>
<path d="M44.5305 38.3144L42.6765 37.2062L38.4268 34.6643L37.1313 33.8906L33.7103 35.3266L27.1621 38.0781L24.2191 39.3134L17.6028 42.0927C18.4252 43.2729 19.5215 44.2368 20.7981 44.9021C22.0748 45.5675 23.4938 45.9144 24.9339 45.9134H44.4792C45.7898 45.9139 47.0761 45.5601 48.2015 44.8896C49.3269 44.219 50.2494 43.2568 50.871 42.105L44.5305 38.3144Z" fill="#28A8EA"/>
</svg>
