<svg width="24" height="25" viewBox="0 0 24 25" fill="none" xmlns="http://www.w3.org/2000/svg">
<path d="M10.0297 4.15893C10.8859 2.6111 13.1111 2.61108 13.9673 4.15888L21.7131 18.1603C22.5427 19.66 21.4581 21.4995 19.7443 21.4995H4.25323C2.53945 21.4995 1.45483 19.66 2.28438 18.1604L10.0297 4.15893ZM12.9973 17.5009C12.9973 16.9494 12.5502 16.5022 11.9987 16.5022C11.4471 16.5022 11 16.9494 11 17.5009C11 18.0524 11.4471 18.4996 11.9987 18.4996C12.5502 18.4996 12.9973 18.0524 12.9973 17.5009ZM12.7381 9.64764C12.6882 9.2816 12.3742 8.9997 11.9945 9C11.5802 9.00033 11.2447 9.33639 11.2451 9.7506L11.2487 14.2522L11.2556 14.354C11.3055 14.72 11.6196 15.0019 11.9993 15.0016C12.4135 15.0013 12.749 14.6652 12.7487 14.251L12.7451 9.7494L12.7381 9.64764Z" fill="#D31510"/>
</svg>
