<svg width="18" height="19" viewBox="0 0 18 19" fill="none" xmlns="http://www.w3.org/2000/svg">
<g clip-path="url(#clip0_294_145)">
<path d="M5.0625 2.75C3.5092 2.75 2.25 4.0092 2.25 5.5625V13.4375C2.25 14.9908 3.5092 16.25 5.0625 16.25H7.05434L7.6162 15.125H5.0625C4.13052 15.125 3.375 14.3695 3.375 13.4375V5.5625C3.375 4.63052 4.13052 3.875 5.0625 3.875H12.9375C13.8695 3.875 14.625 4.63052 14.625 5.5625V8.0026C14.751 8.14608 14.8623 8.31006 14.9545 8.49456L15.75 10.0858V5.5625C15.75 4.0092 14.4908 2.75 12.9375 2.75H5.0625ZM7.875 13.4375H8.459L9.02086 12.3125H7.875C7.56434 12.3125 7.3125 12.5643 7.3125 12.875C7.3125 13.1857 7.56434 13.4375 7.875 13.4375ZM10.1446 10.0625L10.7065 8.9375H7.875C7.56434 8.9375 7.3125 9.18934 7.3125 9.5C7.3125 9.81066 7.56434 10.0625 7.875 10.0625H10.1446ZM5.34375 6.96875C5.80974 6.96875 6.1875 6.59099 6.1875 6.125C6.1875 5.65901 5.80974 5.28125 5.34375 5.28125C4.87776 5.28125 4.5 5.65901 4.5 6.125C4.5 6.59099 4.87776 6.96875 5.34375 6.96875ZM5.34375 10.3438C5.80974 10.3438 6.1875 9.96599 6.1875 9.5C6.1875 9.03401 5.80974 8.65625 5.34375 8.65625C4.87776 8.65625 4.5 9.03401 4.5 9.5C4.5 9.96599 4.87776 10.3438 5.34375 10.3438ZM5.34375 13.7188C5.80974 13.7188 6.1875 13.341 6.1875 12.875C6.1875 12.409 5.80974 12.0312 5.34375 12.0312C4.87776 12.0312 4.5 12.409 4.5 12.875C4.5 13.341 4.87776 13.7188 5.34375 13.7188ZM7.875 5.5625C7.56434 5.5625 7.3125 5.81434 7.3125 6.125C7.3125 6.43566 7.56434 6.6875 7.875 6.6875H12.9375C13.2482 6.6875 13.5 6.43566 13.5 6.125C13.5 5.81434 13.2482 5.5625 12.9375 5.5625H7.875ZM11.9283 8.99776C12.343 8.16759 13.5277 8.16737 13.9427 8.99737L17.8797 16.8706C18.254 17.6192 17.7096 18.5 16.8726 18.5H9.00243C8.16559 18.5 7.62117 17.6196 7.99513 16.871L11.9283 8.99776ZM13.4981 11.182C13.4981 10.8711 13.2461 10.619 12.9352 10.619C12.6242 10.619 12.3722 10.8711 12.3722 11.182V14.5596C12.3722 14.8705 12.6242 15.1225 12.9352 15.1225C13.2461 15.1225 13.4981 14.8705 13.4981 14.5596V11.182ZM12.9352 17.3743C13.2461 17.3743 13.4981 17.1222 13.4981 16.8113C13.4981 16.5004 13.2461 16.2484 12.9352 16.2484C12.6242 16.2484 12.3722 16.5004 12.3722 16.8113C12.3722 17.1222 12.6242 17.3743 12.9352 17.3743Z" fill="#EA3829"/>
</g>
<defs>
<clipPath id="clip0_294_145">
<rect width="18" height="18" fill="white" transform="translate(0 0.5)"/>
</clipPath>
</defs>
</svg>
