<svg width="68" height="68" viewBox="0 0 68 68" fill="none" xmlns="http://www.w3.org/2000/svg">
<rect width="68" height="68" rx="34" fill="#F8F8F8"/>
<g clip-path="url(#clip0_283_1309)">
<path d="M48.4911 42.7948C48.0111 43.0458 47.5161 43.267 47.0089 43.4571C45.3945 44.0612 43.6842 44.3689 41.9605 44.3655C35.3061 44.3655 29.5095 39.7882 29.5095 33.9143C29.5181 33.1265 29.7367 32.3552 30.1429 31.68C30.549 31.0049 31.128 30.4504 31.82 30.0738C25.8013 30.3269 24.2544 36.5988 24.2544 40.2733C24.2544 50.6627 33.8295 51.716 35.8925 51.716C37.0049 51.716 38.6825 51.3926 39.6894 51.0747L39.8736 51.0129C43.7482 49.6734 47.0513 47.0547 49.2392 43.5879C49.3062 43.4823 49.3362 43.3574 49.3243 43.2329C49.3124 43.1084 49.2593 42.9914 49.1735 42.9005C49.0877 42.8095 48.974 42.7497 48.8504 42.7306C48.7269 42.7114 48.6004 42.734 48.4911 42.7948Z" fill="url(#paint0_linear_283_1309)"/>
<path opacity="0.35" d="M48.4911 42.7948C48.0111 43.0458 47.5161 43.267 47.0089 43.4571C45.3945 44.0612 43.6842 44.3689 41.9605 44.3655C35.3061 44.3655 29.5095 39.7882 29.5095 33.9143C29.5181 33.1265 29.7367 32.3552 30.1429 31.68C30.549 31.0049 31.128 30.4504 31.82 30.0738C25.8013 30.3269 24.2544 36.5988 24.2544 40.2733C24.2544 50.6627 33.8295 51.716 35.8925 51.716C37.0049 51.716 38.6825 51.3926 39.6894 51.0747L39.8736 51.0129C43.7482 49.6734 47.0513 47.0547 49.2392 43.5879C49.3062 43.4823 49.3362 43.3574 49.3243 43.2329C49.3124 43.1084 49.2593 42.9914 49.1735 42.9005C49.0877 42.8095 48.974 42.7497 48.8504 42.7306C48.7269 42.7114 48.6004 42.734 48.4911 42.7948Z" fill="url(#paint1_radial_283_1309)"/>
<path d="M30.8653 49.9497C29.611 49.1712 28.524 48.1511 27.6675 46.9488C26.6912 45.6112 26.0194 44.0763 25.6992 42.4517C25.379 40.8271 25.4181 39.1521 25.8138 37.5441C26.2095 35.9362 26.9521 34.4343 27.9897 33.1438C29.0273 31.8533 30.3347 30.8055 31.8201 30.0737C32.2589 29.867 33.0084 29.493 34.0054 29.5112C34.7079 29.5164 35.3996 29.6841 36.0263 30.0012C36.6531 30.3184 37.1979 30.7764 37.6181 31.3394C38.186 32.0976 38.4991 33.0162 38.5125 33.9634C38.5125 33.9339 41.9521 22.7697 27.2625 22.7697C21.089 22.7697 16.0125 28.6281 16.0125 33.768C15.9881 36.4869 16.5699 39.1771 17.7154 41.643C19.5876 45.6375 22.8615 48.8055 26.9155 50.5452C30.9695 52.285 35.5212 52.4754 39.7064 51.0803C38.241 51.5423 36.6928 51.681 35.1687 51.4868C33.6445 51.2926 32.1806 50.7701 30.8779 49.9553L30.8653 49.9497Z" fill="url(#paint2_linear_283_1309)"/>
<path opacity="0.41" d="M30.8653 49.9497C29.611 49.1712 28.524 48.1511 27.6675 46.9488C26.6912 45.6112 26.0194 44.0763 25.6992 42.4517C25.379 40.8271 25.4181 39.1521 25.8138 37.5441C26.2095 35.9362 26.9521 34.4343 27.9897 33.1438C29.0273 31.8533 30.3347 30.8055 31.8201 30.0737C32.2589 29.867 33.0084 29.493 34.0054 29.5112C34.7079 29.5164 35.3996 29.6841 36.0263 30.0012C36.6531 30.3184 37.1979 30.7764 37.6181 31.3394C38.186 32.0976 38.4991 33.0162 38.5125 33.9634C38.5125 33.9339 41.9521 22.7697 27.2625 22.7697C21.089 22.7697 16.0125 28.6281 16.0125 33.768C15.9881 36.4869 16.5699 39.1771 17.7154 41.643C19.5876 45.6375 22.8615 48.8055 26.9155 50.5452C30.9695 52.285 35.5212 52.4754 39.7064 51.0803C38.241 51.5423 36.6928 51.681 35.1687 51.4868C33.6445 51.2926 32.1806 50.7701 30.8779 49.9553L30.8653 49.9497Z" fill="url(#paint3_radial_283_1309)"/>
<path d="M37.4185 36.9334C37.3046 37.0811 36.9544 37.285 36.9544 37.7294C36.9544 38.0964 37.1935 38.4494 37.6182 38.7461C39.6403 40.1523 43.4527 39.9667 43.4625 39.9667C44.9609 39.9631 46.4309 39.5576 47.7192 38.7925C49.0189 38.0336 50.0976 36.9481 50.8482 35.6437C51.5989 34.3393 51.9954 32.8612 51.9985 31.3562C52.035 28.2048 50.8735 26.1095 50.4038 25.1814C47.4239 19.3525 40.9918 16 33.9971 16C29.2667 15.9995 24.7263 17.8612 21.3578 21.1823C17.9893 24.5034 16.0636 29.017 15.9971 33.7469C16.0646 28.6084 21.1721 24.4586 27.2471 24.4586C27.7393 24.4586 30.5461 24.5064 33.1533 25.8747C35.4511 27.0812 36.6549 28.5381 37.4916 29.9823C38.3607 31.4828 38.5153 33.3784 38.5153 34.1336C38.5153 34.8887 38.13 36.0081 37.4185 36.9334Z" fill="url(#paint4_radial_283_1309)"/>
<path d="M37.4185 36.9334C37.3046 37.0811 36.9544 37.285 36.9544 37.7294C36.9544 38.0964 37.1935 38.4494 37.6182 38.7461C39.6403 40.1523 43.4527 39.9667 43.4625 39.9667C44.9609 39.9631 46.4309 39.5576 47.7192 38.7925C49.0189 38.0336 50.0976 36.9481 50.8482 35.6437C51.5989 34.3393 51.9954 32.8612 51.9985 31.3562C52.035 28.2048 50.8735 26.1095 50.4038 25.1814C47.4239 19.3525 40.9918 16 33.9971 16C29.2667 15.9995 24.7263 17.8612 21.3578 21.1823C17.9893 24.5034 16.0636 29.017 15.9971 33.7469C16.0646 28.6084 21.1721 24.4586 27.2471 24.4586C27.7393 24.4586 30.5461 24.5064 33.1533 25.8747C35.4511 27.0812 36.6549 28.5381 37.4916 29.9823C38.3607 31.4828 38.5153 33.3784 38.5153 34.1336C38.5153 34.8887 38.13 36.0081 37.4185 36.9334Z" fill="url(#paint5_radial_283_1309)"/>
</g>
<defs>
<linearGradient id="paint0_linear_283_1309" x1="24.2544" y1="40.8977" x2="49.3335" y2="40.8977" gradientUnits="userSpaceOnUse">
<stop stop-color="#0C59A4"/>
<stop offset="1" stop-color="#114A8B"/>
</linearGradient>
<radialGradient id="paint1_radial_283_1309" cx="0" cy="0" r="1" gradientUnits="userSpaceOnUse" gradientTransform="translate(38.106 41.0954) scale(13.4128 12.7422)">
<stop offset="0.72" stop-opacity="0"/>
<stop offset="0.95" stop-opacity="0.53"/>
<stop offset="1"/>
</radialGradient>
<linearGradient id="paint2_linear_283_1309" x1="37.476" y1="30.0189" x2="21.8118" y2="47.0809" gradientUnits="userSpaceOnUse">
<stop stop-color="#1B9DE2"/>
<stop offset="0.16" stop-color="#1595DF"/>
<stop offset="0.67" stop-color="#0680D7"/>
<stop offset="1" stop-color="#0078D4"/>
</linearGradient>
<radialGradient id="paint3_radial_283_1309" cx="0" cy="0" r="1" gradientUnits="userSpaceOnUse" gradientTransform="translate(25.9243 43.9855) rotate(-81.3844) scale(20.1693 16.2948)">
<stop offset="0.76" stop-opacity="0"/>
<stop offset="0.95" stop-opacity="0.5"/>
<stop offset="1"/>
</radialGradient>
<radialGradient id="paint4_radial_283_1309" cx="0" cy="0" r="1" gradientUnits="userSpaceOnUse" gradientTransform="translate(19.634 22.6624) rotate(92.2906) scale(28.4895 60.6767)">
<stop stop-color="#35C1F1"/>
<stop offset="0.11" stop-color="#34C1ED"/>
<stop offset="0.23" stop-color="#2FC2DF"/>
<stop offset="0.31" stop-color="#2BC3D2"/>
<stop offset="0.67" stop-color="#36C752"/>
</radialGradient>
<radialGradient id="paint5_radial_283_1309" cx="0" cy="0" r="1" gradientUnits="userSpaceOnUse" gradientTransform="translate(49.7572 26.8852) rotate(73.7398) scale(13.6884 11.1314)">
<stop stop-color="#66EB6E"/>
<stop offset="1" stop-color="#66EB6E" stop-opacity="0"/>
</radialGradient>
<clipPath id="clip0_283_1309">
<rect width="36" height="36" fill="white" transform="translate(16 16)"/>
</clipPath>
</defs>
</svg>
