<svg width="68" height="68" viewBox="0 0 68 68" fill="none" xmlns="http://www.w3.org/2000/svg">
<rect width="68" height="68" rx="34" fill="#F8F8F8"/>
<path d="M34 42.625C38.7635 42.625 42.625 38.7635 42.625 34C42.625 29.2366 38.7635 25.375 34 25.375C29.2365 25.375 25.375 29.2366 25.375 34C25.375 38.7635 29.2365 42.625 34 42.625Z" fill="url(#paint0_linear_283_1300)"/>
<path d="M34 39.25C36.8995 39.25 39.25 36.8995 39.25 34C39.25 31.1005 36.8995 28.75 34 28.75C31.1005 28.75 28.75 31.1005 28.75 34C28.75 36.8995 31.1005 39.25 34 39.25Z" fill="url(#paint1_linear_283_1300)"/>
<path d="M48.5553 30.4322C46.7635 30.4105 45.0288 29.4767 44.068 27.8125C43.1433 26.2105 43.162 24.3257 43.9465 22.7927C42.3528 21.3775 40.465 20.2885 38.374 19.6517C37.4328 21.067 35.8263 22 34 22C32.1738 22 30.5673 21.067 29.6268 19.6517C27.5358 20.2885 25.648 21.3775 24.0543 22.7927C24.8388 24.3257 24.8575 26.2105 23.9328 27.8125C22.972 29.4767 21.2373 30.4105 19.4455 30.4322C19.165 31.5775 19 32.7685 19 34C19 34.963 19.0997 35.9012 19.273 36.814C21.1248 36.7757 22.9413 37.72 23.9328 39.4375C24.9588 41.215 24.823 43.3405 23.7678 44.9462C25.3293 46.4065 27.1975 47.5382 29.2728 48.2275C30.1203 46.468 31.9158 45.25 34 45.25C36.0843 45.25 37.8798 46.468 38.7273 48.2282C40.8025 47.539 42.6708 46.4072 44.2323 44.947C43.177 43.3412 43.0413 41.2157 44.0673 39.4382C45.0588 37.7207 46.8745 36.7765 48.727 36.8147C48.9003 35.9012 49 34.963 49 34C49 32.7685 48.835 31.5775 48.5553 30.4322ZM34 41.875C29.6508 41.875 26.125 38.3492 26.125 34C26.125 29.6507 29.6508 26.125 34 26.125C38.3493 26.125 41.875 29.6507 41.875 34C41.875 38.3492 38.3493 41.875 34 41.875Z" fill="url(#paint2_linear_283_1300)"/>
<defs>
<linearGradient id="paint0_linear_283_1300" x1="40.009" y1="40.009" x2="27.9108" y2="27.9108" gradientUnits="userSpaceOnUse">
<stop stop-color="white"/>
<stop offset="0.242" stop-color="#F2F2F2"/>
<stop offset="1" stop-color="#CCCCCC"/>
</linearGradient>
<linearGradient id="paint1_linear_283_1300" x1="29.0875" y1="29.0875" x2="37.705" y2="37.705" gradientUnits="userSpaceOnUse">
<stop stop-color="#0D61A9"/>
<stop offset="0.363" stop-color="#0E5FA4"/>
<stop offset="0.78" stop-color="#135796"/>
<stop offset="1" stop-color="#16528C"/>
</linearGradient>
<linearGradient id="paint2_linear_283_1300" x1="19.9945" y1="20.008" x2="44.5615" y2="44.5742" gradientUnits="userSpaceOnUse">
<stop stop-color="#889097"/>
<stop offset="0.331" stop-color="#848C94"/>
<stop offset="0.669" stop-color="#78828B"/>
<stop offset="1" stop-color="#64717C"/>
</linearGradient>
</defs>
</svg>
