<svg width="18" height="19" viewBox="0 0 18 19" fill="none" xmlns="http://www.w3.org/2000/svg">
<path d="M9.3078 2.06855C8.79489 1.136 7.45491 1.13601 6.94201 2.06855L1.03915 12.8011C0.544307 13.7008 1.19523 14.8016 2.22204 14.8016H9.36265C9.26369 14.5123 9.18713 14.212 9.1321 13.9016H2.22204C1.87977 13.9016 1.6628 13.5347 1.82774 13.2348L7.73061 2.50228C7.90157 2.19143 8.34823 2.19143 8.5192 2.50228L11.8805 8.61382C12.117 8.45894 12.3513 8.26439 12.5845 8.02625L9.3078 2.06855Z" fill="#EA3829"/>
<path d="M8.12489 5.80162C8.37342 5.80162 8.57489 6.00309 8.57489 6.25162V9.85163C8.57489 10.1002 8.37342 10.3016 8.12489 10.3016C7.87636 10.3016 7.67489 10.1002 7.67489 9.85163V6.25162C7.67489 6.00309 7.87636 5.80162 8.12489 5.80162Z" fill="#EA3829"/>
<path d="M8.12489 12.5516C8.49768 12.5516 8.79989 12.2494 8.79989 11.8766C8.79989 11.5038 8.49768 11.2016 8.12489 11.2016C7.7521 11.2016 7.44989 11.5038 7.44989 11.8766C7.44989 12.2494 7.7521 12.5516 8.12489 12.5516Z" fill="#EA3829"/>
<path d="M14.4246 9.18965C14.7149 9.40921 15.0147 9.58387 15.3246 9.71409C15.6156 9.83635 15.9155 9.91944 16.2246 9.96373C16.4016 9.98907 16.5815 10.0017 16.7646 10.0017C16.9386 10.0017 17.0837 10.1303 17.1173 10.3011L17.1246 10.3767V12.6277C17.1246 15.0414 15.9429 16.6823 13.6385 17.4825C13.5646 17.5081 13.4847 17.5081 13.4108 17.4825C12.758 17.2558 12.1954 16.9617 11.7241 16.6017C11.3778 16.3371 11.0808 16.0369 10.8338 15.7017C10.6301 15.4254 10.4604 15.1253 10.3248 14.8017C10.0851 14.2294 9.95245 13.5836 9.92855 12.8665L9.92462 12.6277V10.3767C9.92462 10.1696 10.0858 10.0017 10.2846 10.0017C11.3857 10.0017 12.3756 9.54348 13.2707 8.61149C13.4113 8.465 13.6394 8.46513 13.78 8.61179C13.9895 8.83042 14.2043 9.02297 14.4246 9.18965Z" fill="#EA3829"/>
</svg>
