<svg width="103" height="20" viewBox="0 0 103 20" fill="none" xmlns="http://www.w3.org/2000/svg">
<g clip-path="url(#clip0_283_1216)">
<path d="M51.0588 12.9769L48.3914 11.3919L48.1931 11.7028C47.5849 12.6581 46.7542 13.1424 45.7246 13.1415C45.3159 13.1449 44.9106 13.0673 44.532 12.9132C44.1535 12.7591 43.8093 12.5315 43.5191 12.2436C43.229 11.9558 42.9988 11.6133 42.8418 11.236C42.6847 10.8587 42.604 10.454 42.6042 10.0453C42.6044 9.63659 42.6856 9.23199 42.843 8.85483C43.0004 8.47766 43.231 8.13542 43.5214 7.84784C43.8118 7.56027 44.1562 7.33307 44.5349 7.17934C44.9136 7.02562 45.319 6.94843 45.7277 6.95222C46.7722 6.95222 47.5569 7.41169 48.197 8.39663L48.396 8.70254L51.0762 7.11391L50.8444 6.77906C49.5644 4.92445 47.8911 4.02298 45.7296 4.02155C41.6434 4.01963 39.4367 7.12252 39.4355 10.0432C39.4344 12.9638 41.636 16.0705 45.7226 16.0705C46.7401 16.075 47.7425 15.8244 48.6381 15.3416C49.5337 14.8588 50.294 14.1592 50.8495 13.3068L51.0588 12.9769Z" fill="white"/>
<path d="M50.9238 16.0739L54.6122 16.0758L55.7079 13.3492L61.2425 13.352L62.3354 16.0787L66.0395 16.0811L59.4324 0.103838L56.1425 0.101685L57.0186 2.21963L50.9238 16.0722M58.4996 6.40672L59.9926 10.1549L56.9863 10.153L58.4996 6.40672Z" fill="white"/>
<path d="M67.5666 16.0825L70.803 16.0844L70.8071 8.91403L72.9173 8.91547L72.919 5.9073H70.8085V4.48561C70.7996 4.3258 70.823 4.16585 70.8773 4.01528C70.9316 3.86472 71.0157 3.72663 71.1245 3.60927C71.2333 3.4919 71.3647 3.39765 71.5107 3.33214C71.6567 3.26664 71.8145 3.23122 71.9745 3.22799C72.2896 3.21883 72.6028 3.27978 72.8915 3.40642L73.252 3.56165L74.5964 0.62643L74.2092 0.468089C73.5595 0.238912 72.8746 0.125576 72.1857 0.133238C70.7181 0.133238 69.5085 0.611603 68.6865 1.52049C67.9439 2.38185 67.5469 3.48784 67.5721 4.62481V5.9061H66.1433L66.1416 8.91427H67.5707L67.5666 16.0825Z" fill="white"/>
<path d="M24.1777 0.00982666V16.0572L27.6942 16.0595L27.6992 6.88507L31.1075 9.4242L34.5187 6.88507V16.0631L38.0299 16.065L38.039 0.00982666L31.1099 5.24525L24.1777 0.00982666Z" fill="white"/>
<path d="M80.2063 4.07636C76.1328 4.0742 73.9326 7.16848 73.9307 10.0798C73.9288 12.9911 76.1261 16.0882 80.1996 16.0906H80.2044C82.0721 16.0705 83.8239 15.2195 85.1793 13.6845L82.5397 12.2446C82.2326 12.5763 81.8606 12.8412 81.4468 13.0231C81.033 13.205 80.5863 13.2998 80.1343 13.3018C78.8049 13.3018 77.6262 12.4151 77.3179 11.2565L86.1198 11.2613V10.462C86.1238 6.06012 82.6641 4.07779 80.2063 4.07636ZM77.3839 8.59926C77.5642 8.08108 77.9048 7.63376 78.3563 7.32212C78.8079 7.01047 79.3469 6.85069 79.8954 6.86592C80.4558 6.85447 81.0064 7.01464 81.4733 7.32496C81.9402 7.63528 82.301 8.08092 82.5074 8.60213L77.3839 8.59926Z" fill="white"/>
<path d="M93.4355 4.08405C89.3616 4.08189 87.1618 7.17593 87.1602 10.0875C87.1585 12.999 89.3546 16.0962 93.4291 16.0983H93.4329C95.3016 16.0782 97.0534 15.2267 98.4079 13.6922L95.7683 12.2523C95.4612 12.5839 95.0892 12.8489 94.6754 13.0308C94.2616 13.2126 93.8148 13.3075 93.3628 13.3095C92.0335 13.3095 90.8545 12.4228 90.5465 11.2642L99.3483 11.269V10.4697C99.3531 6.06757 95.8931 4.08548 93.4355 4.08405ZM90.6132 8.60838C90.7933 8.09006 91.1338 7.6426 91.5854 7.33092C92.037 7.01924 92.5761 6.85955 93.1246 6.87504C93.6851 6.86373 94.2356 7.02392 94.7025 7.33418C95.1693 7.64443 95.5303 8.08993 95.7369 8.61101L90.6132 8.60838Z" fill="white"/>
<path d="M98.9355 3.54889H100.306V3.80505H99.7674V5.24013H99.4713V3.80505H98.9355V3.54889Z" fill="white"/>
<path d="M100.497 3.54889H100.914L101.381 4.87394H101.386L101.84 3.54889H102.253V5.24109H101.971V3.9354H101.966L101.497 5.24109H101.252L100.783 3.9354H100.778V5.24109H100.497V3.54889Z" fill="white"/>
<path d="M8.69301 4.01849L0 -0.00189209V15.9754L8.69301 19.9984L17.3858 15.9754V-0.00189209L8.69301 4.01849ZM13.823 13.7012L8.69301 16.0746L3.56331 13.7012V5.5691L8.69301 7.94153L13.823 5.5691V13.7012Z" fill="white"/>
</g>
<defs>
<clipPath id="clip0_283_1216">
<rect width="102.254" height="19.9995" fill="white"/>
</clipPath>
</defs>
</svg>
