<svg width="103" height="20" viewBox="0 0 103 20" fill="none" xmlns="http://www.w3.org/2000/svg">
<g clip-path="url(#clip0_294_96)">
<path d="M51.0588 12.9771L48.3914 11.3921L48.1931 11.703C47.5849 12.6583 46.7542 13.1426 45.7246 13.1417C45.3159 13.1451 44.9106 13.0675 44.532 12.9134C44.1535 12.7593 43.8093 12.5317 43.5191 12.2438C43.229 11.956 42.9988 11.6135 42.8418 11.2362C42.6847 10.8589 42.604 10.4542 42.6042 10.0455C42.6044 9.63678 42.6856 9.23217 42.843 8.85501C43.0004 8.47785 43.231 8.1356 43.5214 7.84802C43.8118 7.56045 44.1562 7.33325 44.5349 7.17953C44.9136 7.02581 45.319 6.94861 45.7277 6.9524C46.7722 6.9524 47.5569 7.41187 48.197 8.39682L48.396 8.70272L51.0762 7.11409L50.8444 6.77924C49.5644 4.92463 47.8911 4.02316 45.7296 4.02173C41.6434 4.01982 39.4367 7.1227 39.4355 10.0433C39.4344 12.964 41.636 16.0707 45.7226 16.0707C46.7401 16.0752 47.7425 15.8246 48.6381 15.3418C49.5337 14.859 50.294 14.1594 50.8495 13.3069L51.0588 12.9771Z" fill="#C01818"/>
<path d="M50.9238 16.074L54.6122 16.076L55.7079 13.3493L61.2425 13.3522L62.3354 16.0788L66.0395 16.0812L59.4324 0.10396L56.1425 0.101807L57.0186 2.21975L50.9238 16.0724M58.4996 6.40684L59.9926 10.155L56.9863 10.1531L58.4996 6.40684Z" fill="#C01818"/>
<path d="M67.5666 16.0827L70.803 16.0846L70.8071 8.91421L72.9173 8.91565L72.919 5.90748H70.8085V4.48579C70.7996 4.32598 70.823 4.16603 70.8773 4.01547C70.9316 3.86491 71.0157 3.72682 71.1245 3.60945C71.2333 3.49208 71.3647 3.39783 71.5107 3.33233C71.6567 3.26682 71.8145 3.2314 71.9745 3.22817C72.2896 3.21902 72.6028 3.27996 72.8915 3.4066L73.252 3.56184L74.5964 0.626613L74.2092 0.468272C73.5595 0.239095 72.8746 0.125759 72.1857 0.133421C70.7181 0.133421 69.5085 0.611786 68.6865 1.52067C67.9439 2.38203 67.5469 3.48802 67.5721 4.62499V5.90628H66.1433L66.1416 8.91445H67.5707L67.5666 16.0827Z" fill="#C01818"/>
<path d="M24.1777 0.0100098V16.0573L27.6942 16.0597L27.6992 6.88525L31.1075 9.42439L34.5187 6.88525V16.0633L38.0299 16.0652L38.039 0.0100098L31.1099 5.24543L24.1777 0.0100098Z" fill="#C01818"/>
<path d="M80.2063 4.07654C76.1328 4.07439 73.9326 7.16866 73.9307 10.08C73.9288 12.9913 76.1261 16.0884 80.1996 16.0908H80.2044C82.0721 16.0707 83.8239 15.2197 85.1793 13.6847L82.5397 12.2448C82.2326 12.5764 81.8606 12.8414 81.4468 13.0233C81.033 13.2051 80.5863 13.3 80.1343 13.302C78.8049 13.302 77.6262 12.4153 77.3179 11.2567L86.1198 11.2615V10.4622C86.1238 6.0603 82.6641 4.07797 80.2063 4.07654ZM77.3839 8.59944C77.5642 8.08127 77.9048 7.63394 78.3563 7.3223C78.8079 7.01065 79.3469 6.85087 79.8954 6.8661C80.4558 6.85465 81.0064 7.01482 81.4733 7.32515C81.9402 7.63547 82.301 8.08111 82.5074 8.60231L77.3839 8.59944Z" fill="#C01818"/>
<path d="M93.4355 4.08423C89.3616 4.08208 87.1618 7.17611 87.1602 10.0877C87.1585 12.9992 89.3546 16.0963 93.4291 16.0985H93.4329C95.3016 16.0784 97.0534 15.2269 98.4079 13.6923L95.7683 12.2525C95.4612 12.5841 95.0892 12.8491 94.6754 13.0309C94.2616 13.2128 93.8148 13.3077 93.3628 13.3097C92.0335 13.3097 90.8545 12.423 90.5465 11.2644L99.3483 11.2692V10.4699C99.3531 6.06775 95.8931 4.08566 93.4355 4.08423ZM90.6132 8.60856C90.7933 8.09024 91.1338 7.64278 91.5854 7.3311C92.037 7.01942 92.5761 6.85973 93.1246 6.87522C93.6851 6.86391 94.2356 7.02411 94.7025 7.33436C95.1693 7.64462 95.5303 8.09011 95.7369 8.61119L90.6132 8.60856Z" fill="#C01818"/>
<path d="M98.9355 3.54907H100.306V3.80523H99.7674V5.24031H99.4713V3.80523H98.9355V3.54907Z" fill="#C01818"/>
<path d="M100.497 3.54907H100.914L101.381 4.87413H101.386L101.84 3.54907H102.253V5.24127H101.971V3.93559H101.966L101.497 5.24127H101.252L100.783 3.93559H100.778V5.24127H100.497V3.54907Z" fill="#C01818"/>
<path d="M8.69301 4.01867L0 -0.00170898V15.9755L8.69301 19.9986L17.3858 15.9755V-0.00170898L8.69301 4.01867ZM13.823 13.7014L8.69301 16.0748L3.56331 13.7014V5.56928L8.69301 7.94171L13.823 5.56928V13.7014Z" fill="#C01818"/>
</g>
<defs>
<clipPath id="clip0_294_96">
<rect width="102.254" height="19.9995" fill="white" transform="translate(0 0.000244141)"/>
</clipPath>
</defs>
</svg>
