<svg width="179" height="180" viewBox="0 0 179 180" fill="none" xmlns="http://www.w3.org/2000/svg">
<path d="M63.0931 28.4433L64.2095 30.8416C65.1809 32.9283 64.1883 35.3914 62.1126 36.3859C50.8338 41.7894 41.5204 50.5429 35.5118 61.3295C34.4134 63.3013 31.9665 64.1565 29.9529 63.1368L27.4849 61.8871C25.547 60.9058 24.7361 58.5505 25.78 56.6457C32.9662 43.5328 44.2785 32.9292 58.0077 26.5155C59.9363 25.6146 62.1948 26.5134 63.0931 28.4433Z" fill="#B5D1FB" fill-opacity="0.24"/>
<path d="M113.907 153.557L112.79 151.158C111.819 149.072 112.812 146.609 114.887 145.614C126.166 140.211 135.48 131.457 141.488 120.671C142.587 118.699 145.033 117.844 147.047 118.863L149.515 120.113C151.453 121.094 152.264 123.449 151.22 125.354C144.034 138.467 132.721 149.071 118.992 155.484C117.064 156.385 114.805 155.487 113.907 153.557Z" fill="#B5D1FB" fill-opacity="0.24"/>
</svg>
