<svg width="32" height="33" viewBox="0 0 32 33" fill="none" xmlns="http://www.w3.org/2000/svg">
<path d="M19.0633 4.30857C17.7319 1.8981 14.2671 1.89812 12.9358 4.30862L2.44269 23.3077C1.15435 25.6404 2.84164 28.4998 5.50647 28.4998H26.4931C29.1579 28.4998 30.8452 25.6403 29.5568 23.3076L19.0633 4.30857ZM17.25 22.5C17.25 23.1904 16.6904 23.75 16 23.75C15.3096 23.75 14.75 23.1904 14.75 22.5C14.75 21.8096 15.3096 21.25 16 21.25C16.6904 21.25 17.25 21.8096 17.25 22.5ZM16 9.5C16.5523 9.5 17 9.94772 17 10.5V18.5C17 19.0523 16.5523 19.5 16 19.5C15.4477 19.5 15 19.0523 15 18.5V10.5C15 9.94772 15.4477 9.5 16 9.5Z" fill="#FFEBE7"/>
</svg>
