<svg width="32" height="24" viewBox="0 0 32 24" fill="none" xmlns="http://www.w3.org/2000/svg">
<path d="M17.4508 2.53318C16.6128 1.82618 15.3872 1.82618 14.5492 2.53318L7.79916 8.22772C7.29241 8.65523 7 9.28447 7 9.94747V19.2526C7 20.2191 7.7835 21.0026 8.75 21.0026H11.75C12.7165 21.0026 13.5 20.2191 13.5 19.2526V15.25C13.5 14.5707 14.0418 14.018 14.7169 14.0004H17.2831C17.9582 14.018 18.5 14.5707 18.5 15.25V19.2526C18.5 20.2191 19.2835 21.0026 20.25 21.0026H23.25C24.2165 21.0026 25 20.2191 25 19.2526V9.94747C25 9.28447 24.7076 8.65523 24.2008 8.22772L17.4508 2.53318Z" fill="#222222"/>
</svg>
