<svg width="40" height="41" viewBox="0 0 40 41" fill="none" xmlns="http://www.w3.org/2000/svg">
<path fill-rule="evenodd" clip-rule="evenodd" d="M19.3007 4.91221C17.8925 2.36258 14.2276 2.3626 12.8195 4.91226L1.7206 25.0081C0.357882 27.4755 2.14259 30.5 4.96126 30.5H20.2495C20.1192 29.7218 20.0398 28.9095 20.0116 28.0635L20 27.3585V20.7121C20 20.1006 20.4757 19.6049 21.0625 19.6049C23.0224 19.6049 24.8629 19.1127 26.5948 18.1184L19.3007 4.91221ZM17.3828 24.1539C17.3828 24.8841 16.7908 25.476 16.0606 25.476C15.3304 25.476 14.7384 24.8841 14.7384 24.1539C14.7384 23.4236 15.3304 22.8317 16.0606 22.8317C16.7908 22.8317 17.3828 23.4236 17.3828 24.1539ZM16.0606 10.4033C16.6448 10.4033 17.1183 10.8769 17.1183 11.4611V19.9229C17.1183 20.5071 16.6448 20.9807 16.0606 20.9807C15.4764 20.9807 15.0029 20.5071 15.0029 19.9229V11.4611C15.0029 10.8769 15.4764 10.4033 16.0606 10.4033ZM32.5 20.5348C33.145 21.0227 33.8113 21.4108 34.5 21.7002C35.1466 21.9719 35.813 22.1565 36.5 22.255C36.8932 22.3113 37.2931 22.3394 37.7 22.3394C38.0866 22.3394 38.4091 22.625 38.4837 23.0048L38.5 23.1727V28.1748C38.5 33.5387 35.874 37.1851 30.753 38.9633C30.5888 39.0203 30.4112 39.0203 30.247 38.9633C28.7965 38.4596 27.5461 37.8061 26.4989 37.006C25.7293 36.418 25.0693 35.7509 24.5203 35.006C24.0677 34.392 23.6905 33.725 23.3894 33.006C22.8566 31.7341 22.5619 30.2992 22.5087 28.7055L22.5 28.1748V23.1727C22.5 22.7125 22.8582 22.3394 23.3 22.3394C25.7468 22.3394 27.9467 21.3211 29.9356 19.25L31.0674 19.2507C31.533 19.7365 32.0103 20.1644 32.5 20.5348Z" fill="#B14C00"/>
</svg>
